<?xml version="1.0" standalone="no"?>
<!DOCTYPE svg PUBLIC "-//W3C//DTD SVG 20010904//EN"
 "http://www.w3.org/TR/2001/REC-SVG-20010904/DTD/svg10.dtd">
<svg version="1.0" xmlns="http://www.w3.org/2000/svg"
 width="26" height="26" viewBox="0 0 512.000000 512.000000"
 preserveAspectRatio="xMidYMid meet">

<g transform="translate(0.000000,512.000000) scale(0.100000,-0.100000)"
fill="#000000" stroke="none">
<path d="M2375 4794 c-109 -12 -262 -38 -367 -65 -756 -187 -1380 -789 -1596
-1539 -68 -235 -87 -373 -86 -635 0 -179 4 -243 22 -345 86 -500 305 -919 658
-1260 272 -263 595 -448 952 -546 223 -61 348 -77 597 -78 242 -1 343 11 559
65 621 155 1161 592 1453 1174 90 178 171 439 209 670 27 164 25 505 -4 675
-81 472 -275 863 -599 1200 -340 355 -766 578 -1258 661 -116 19 -442 33 -540
23z m-369 -1141 c16 -12 119 -154 229 -317 l199 -296 303 0 302 0 3 269 c3
254 4 271 24 297 39 53 71 69 134 69 63 0 95 -16 134 -69 20 -26 21 -43 24
-296 l3 -268 109 -4 c117 -3 140 -12 184 -72 29 -39 29 -133 0 -172 -44 -60
-67 -69 -185 -72 l-109 -4 0 -158 0 -158 109 -4 c118 -3 141 -12 185 -72 29
-39 29 -133 0 -172 -44 -60 -67 -69 -184 -72 l-109 -4 -3 -267 -3 -268 -29
-37 c-16 -21 -45 -45 -65 -53 -44 -19 -114 -12 -149 14 -14 11 -116 153 -226
316 l-200 297 -303 0 -302 0 -3 -269 c-3 -254 -4 -271 -24 -297 -39 -53 -71
-69 -134 -69 -63 0 -95 16 -134 69 -20 26 -21 43 -24 296 l-3 268 -109 4 c-91
2 -113 6 -136 24 -53 39 -69 71 -69 134 0 63 16 95 69 134 23 18 45 22 137 24
l109 4 0 158 0 158 -109 4 c-118 3 -141 12 -185 72 -29 39 -29 133 0 172 44
60 67 69 185 72 l109 4 0 253 c0 263 4 291 43 334 50 54 145 65 203 24z" fill="#fff"/>
<path d="M2080 2560 l0 -160 196 0 c153 0 194 3 188 13 -4 6 -52 78 -106 160
l-98 147 -90 0 -90 0 0 -160z" fill="#fff" />
<path d="M2656 2708 c4 -7 52 -79 106 -160 l98 -148 90 0 90 0 0 160 0 160
-196 0 c-153 0 -194 -3 -188 -12z" fill="#fff"/>
</g>
</svg>
